<svg width="24" height="24" viewBox="0 0 24 24" fill="none" xmlns="http://www.w3.org/2000/svg">
<path d="M2.50523 14.4122L6.78492 17.114L11.0632 14.4122V12.0215H10.5007V14.1019L7.06477 16.2712V12.1645L8.28352 12.8639L12.8829 10.2262L9.04242 8.1042L6.78258 6.85498L0.685547 10.2262L2.50523 11.2701V14.4122ZM3.06773 11.5926L5.28398 12.8639L6.50273 12.1645V16.2712L3.0668 14.1019L3.06773 11.5926ZM8.28586 12.2156L7.34836 11.6789L10.7843 9.71014L11.7368 10.2365L8.28586 12.2156ZM8.19211 8.27436L8.76258 8.58982L10.212 9.39092L6.7868 11.355L3.36164 9.39092L6.78492 7.49998L8.19211 8.27436ZM2.78367 9.7092L6.21961 11.6779L5.28211 12.2147L1.83164 10.2351L2.78367 9.7092Z" fill="#4B5563"/>
<path d="M21.2959 2.47412H7.71484V6.42193H8.27734V3.03662H20.7334V19.2657H11.05V19.5469C11.0534 19.7311 11.02 19.9142 10.9519 20.0853C10.8837 20.2565 10.7822 20.4124 10.6531 20.5438C10.524 20.6753 10.3701 20.7797 10.2002 20.851C10.0303 20.9223 9.8479 20.959 9.66367 20.959C9.47944 20.959 9.29706 20.9223 9.12717 20.851C8.95729 20.7797 8.80332 20.6753 8.67425 20.5438C8.54518 20.4124 8.44361 20.2565 8.37546 20.0853C8.30731 19.9142 8.27396 19.7311 8.27734 19.5469V17.6785H7.71484V19.5469C7.71708 20.0606 7.91812 20.5535 8.27581 20.9222C8.6335 21.2909 9.12005 21.5068 9.63344 21.5246H21.3381C21.8625 21.524 22.3653 21.3154 22.7362 20.9447C23.1071 20.574 23.3159 20.0713 23.3167 19.5469V19.2657H21.2959V2.47412ZM21.3381 20.9635H11.0139C11.327 20.6594 11.5305 20.2602 11.5928 19.8282H22.7266C22.6612 20.1483 22.4873 20.4361 22.2344 20.6429C21.9814 20.8498 21.6649 20.963 21.3381 20.9635Z" fill="#4B5563"/>
<path d="M19.4961 15.4482H11.9023V16.0107H19.4961V15.4482Z" fill="#4B5563"/>
<path d="M19.4922 17.0527H11.8984V17.6152H19.4922V17.0527Z" fill="#4B5563"/>
<path d="M19.5234 12.3623H15.4219V12.9248H19.5234V12.3623Z" fill="#4B5563"/>
<path d="M19.4922 13.8384H15.3906V14.4009H19.4922V13.8384Z" fill="#4B5563"/>
<path d="M17.7338 6.99746L18.2002 7.31105L18.5864 6.7373C18.7351 7.25234 18.7085 7.80221 18.5106 8.30044C18.3127 8.79867 17.9549 9.21702 17.4934 9.48971C17.0318 9.7624 16.4927 9.87396 15.9609 9.80686C15.429 9.73976 14.9345 9.4978 14.5552 9.11902L14.1562 9.51559C14.6232 9.98235 15.232 10.2808 15.8869 10.3642C16.5419 10.4475 17.206 10.311 17.775 9.97613C18.344 9.64121 18.7856 9.12683 19.0307 8.51374C19.2757 7.90064 19.3102 7.22354 19.1287 6.58871L19.7461 7.00402L20.0602 6.53527L18.6703 5.60059L17.7338 6.99746Z" fill="#4B5563"/>
<path d="M14.5277 7.43964L14.0589 7.12558L13.6731 7.69933C13.5244 7.18429 13.5511 6.63443 13.7489 6.13619C13.9468 5.63796 14.3046 5.21961 14.7662 4.94692C15.2277 4.67424 15.7668 4.56267 16.2987 4.62977C16.8305 4.69687 17.325 4.93883 17.7044 5.31761L18.1019 4.92011C17.635 4.45326 17.0263 4.15468 16.3714 4.07125C15.7164 3.98782 15.0523 4.12427 14.4834 4.45916C13.9144 4.79406 13.4727 5.30843 13.2277 5.92153C12.9827 6.53463 12.9483 7.21173 13.1298 7.84652L12.5172 7.4312L12.2031 7.89995L13.593 8.83464L14.5277 7.43964Z" fill="#4B5563"/>
</svg>
